<svg xmlns="http://www.w3.org/2000/svg" width="1600" height="900" viewBox="0 0 1600 900">

  <defs>
    <linearGradient id="bg" x1="0" y1="0" x2="1" y2="1">
      <stop offset="0" stop-color="#060812"/>
      <stop offset="0.55" stop-color="#0b0d18"/>
      <stop offset="1" stop-color="#070910"/>
    </linearGradient>
    <radialGradient id="glowA" cx="20%" cy="18%" r="65%">
      <stop offset="0" stop-color="#6ee7ff" stop-opacity=".22"/>
      <stop offset="1" stop-color="#6ee7ff" stop-opacity="0"/>
    </radialGradient>
    <radialGradient id="glowB" cx="88%" cy="20%" r="70%">
      <stop offset="0" stop-color="#f5c66a" stop-opacity=".18"/>
      <stop offset="1" stop-color="#f5c66a" stop-opacity="0"/>
    </radialGradient>
    <pattern id="grid" width="40" height="40" patternUnits="userSpaceOnUse">
      <path d="M 40 0 L 0 0 0 40" fill="none" stroke="rgba(255,255,255,.07)" stroke-width="1"/>
    </pattern>
    <filter id="shadow" x="-30%" y="-30%" width="160%" height="160%">
      <feDropShadow dx="0" dy="18" stdDeviation="18" flood-color="#000" flood-opacity=".55"/>
    </filter>
  </defs>

<rect width="1600" height="900" fill="url(#bg)"/>
<rect width="1600" height="900" fill="url(#glowA)"/>
<rect width="1600" height="900" fill="url(#glowB)"/>
<rect width="1600" height="900" fill="url(#grid)" opacity=".40"/>
<g filter="url(#shadow)">
<rect x="70" y="70" width="1460" height="760" rx="28" fill="rgba(255,255,255,.05)" stroke="rgba(255,255,255,.12)"/>
<rect x="96" y="96" width="1408" height="58" rx="18" fill="rgba(255,255,255,.06)" stroke="rgba(255,255,255,.10)"/>
<rect x="96" y="172" width="240" height="630" rx="22" fill="rgba(255,255,255,.04)" stroke="rgba(255,255,255,.10)"/>
<rect x="120" y="200" width="192" height="16" rx="8" fill="rgba(255,255,255,.13)" opacity="0.35"/>
<rect x="120" y="264" width="192" height="16" rx="8" fill="rgba(255,255,255,.13)" opacity="0.7"/>
<rect x="120" y="328" width="192" height="16" rx="8" fill="rgba(255,255,255,.13)" opacity="0.35"/>
<rect x="120" y="392" width="192" height="16" rx="8" fill="rgba(255,255,255,.13)" opacity="0.35"/>
<rect x="120" y="456" width="192" height="16" rx="8" fill="rgba(255,255,255,.13)" opacity="0.35"/>
<rect x="120" y="520" width="192" height="16" rx="8" fill="rgba(255,255,255,.13)" opacity="0.35"/>
<rect x="120" y="584" width="192" height="16" rx="8" fill="rgba(255,255,255,.13)" opacity="0.35"/>
<rect x="120" y="648" width="192" height="16" rx="8" fill="rgba(255,255,255,.13)" opacity="0.35"/>
<rect x="360" y="172" width="1144" height="300" rx="24" fill="rgba(255,255,255,.045)" stroke="rgba(255,255,255,.12)"/>
<rect x="360" y="492" width="560" height="310" rx="24" fill="rgba(255,255,255,.045)" stroke="rgba(255,255,255,.12)"/>
<rect x="944" y="492" width="560" height="310" rx="24" fill="rgba(255,255,255,.045)" stroke="rgba(255,255,255,.12)"/>
<rect x="392.0" y="381.5" width="79.0" height="52.5" rx="6" fill="#6ee7ff" opacity="0.65"/>
<rect x="483.0" y="369.1" width="79.0" height="64.9" rx="6" fill="#6ee7ff" opacity="0.65"/>
<rect x="574.0" y="356.7" width="79.0" height="77.3" rx="6" fill="#6ee7ff" opacity="0.65"/>
<rect x="665.0" y="344.3" width="79.0" height="89.7" rx="6" fill="#6ee7ff" opacity="0.65"/>
<rect x="756.0" y="331.9" width="79.0" height="102.1" rx="6" fill="#6ee7ff" opacity="0.65"/>
<rect x="847.0" y="319.5" width="79.0" height="114.5" rx="6" fill="#6ee7ff" opacity="0.65"/>
<rect x="938.0" y="307.0" width="79.0" height="127.0" rx="6" fill="#6ee7ff" opacity="0.65"/>
<rect x="1029.0" y="294.6" width="79.0" height="139.4" rx="6" fill="#6ee7ff" opacity="0.65"/>
<rect x="1120.0" y="282.2" width="79.0" height="151.8" rx="6" fill="#6ee7ff" opacity="0.65"/>
<rect x="1211.0" y="269.8" width="79.0" height="164.2" rx="6" fill="#6ee7ff" opacity="0.65"/>
<rect x="1302.0" y="257.4" width="79.0" height="176.6" rx="6" fill="#6ee7ff" opacity="0.65"/>
<rect x="1393.0" y="245.0" width="79.0" height="189.0" rx="6" fill="#6ee7ff" opacity="0.65"/>
<path d="M 392.0 383.8 L 521.6 371.2 L 629.6 379.6 L 770.0 346.0 L 910.4 354.4 L 1061.6 316.6 L 1202.0 329.2 L 1342.4 289.3 L 1472.0 278.8" fill="none" stroke="#f5c66a" stroke-opacity="0.75" stroke-width="6" stroke-linecap="round" stroke-linejoin="round"/>
<rect x="392" y="730" width="34" height="30" rx="6" fill="#6ee7ff" opacity=".55"/>
<rect x="446" y="710" width="34" height="50" rx="6" fill="#6ee7ff" opacity=".55"/>
<rect x="500" y="690" width="34" height="70" rx="6" fill="#6ee7ff" opacity=".55"/>
<rect x="554" y="670" width="34" height="90" rx="6" fill="#6ee7ff" opacity=".55"/>
<rect x="608" y="650" width="34" height="110" rx="6" fill="#6ee7ff" opacity=".55"/>
<rect x="662" y="630" width="34" height="130" rx="6" fill="#6ee7ff" opacity=".55"/>
<rect x="716" y="610" width="34" height="150" rx="6" fill="#6ee7ff" opacity=".55"/>
<rect x="770" y="590" width="34" height="170" rx="6" fill="#6ee7ff" opacity=".55"/>
<rect x="824" y="570" width="34" height="190" rx="6" fill="#6ee7ff" opacity=".55"/>
<rect x="980" y="530" width="240" height="12" rx="6" fill="rgba(255,255,255,.12)" opacity=".55"/>
<rect x="1240" y="528" width="240" height="16" rx="8" fill="#f5c66a" opacity="0.22"/>
<rect x="980" y="572" width="240" height="12" rx="6" fill="rgba(255,255,255,.12)" opacity=".55"/>
<rect x="1240" y="570" width="240" height="16" rx="8" fill="#f5c66a" opacity="0.22"/>
<rect x="980" y="614" width="240" height="12" rx="6" fill="rgba(255,255,255,.12)" opacity=".55"/>
<rect x="1240" y="612" width="240" height="16" rx="8" fill="#f5c66a" opacity="0.1"/>
<rect x="980" y="656" width="240" height="12" rx="6" fill="rgba(255,255,255,.12)" opacity=".55"/>
<rect x="1240" y="654" width="240" height="16" rx="8" fill="#f5c66a" opacity="0.1"/>
<rect x="980" y="698" width="240" height="12" rx="6" fill="rgba(255,255,255,.12)" opacity=".55"/>
<rect x="1240" y="696" width="240" height="16" rx="8" fill="#f5c66a" opacity="0.1"/>
<rect x="980" y="740" width="240" height="12" rx="6" fill="rgba(255,255,255,.12)" opacity=".55"/>
<rect x="1240" y="738" width="240" height="16" rx="8" fill="#f5c66a" opacity="0.1"/>
</g>
</svg>