<svg xmlns="http://www.w3.org/2000/svg" width="1600" height="900" viewBox="0 0 1600 900">

  <defs>
    <linearGradient id="bg" x1="0" y1="0" x2="1" y2="1">
      <stop offset="0" stop-color="#060812"/>
      <stop offset="0.55" stop-color="#0b0d18"/>
      <stop offset="1" stop-color="#070910"/>
    </linearGradient>
    <radialGradient id="glowA" cx="20%" cy="18%" r="65%">
      <stop offset="0" stop-color="#6ee7ff" stop-opacity=".22"/>
      <stop offset="1" stop-color="#6ee7ff" stop-opacity="0"/>
    </radialGradient>
    <radialGradient id="glowB" cx="88%" cy="20%" r="70%">
      <stop offset="0" stop-color="#f5c66a" stop-opacity=".18"/>
      <stop offset="1" stop-color="#f5c66a" stop-opacity="0"/>
    </radialGradient>
    <pattern id="grid" width="40" height="40" patternUnits="userSpaceOnUse">
      <path d="M 40 0 L 0 0 0 40" fill="none" stroke="rgba(255,255,255,.07)" stroke-width="1"/>
    </pattern>
    <filter id="shadow" x="-30%" y="-30%" width="160%" height="160%">
      <feDropShadow dx="0" dy="18" stdDeviation="18" flood-color="#000" flood-opacity=".55"/>
    </filter>
  </defs>

<rect width="1600" height="900" fill="url(#bg)"/>
<rect width="1600" height="900" fill="url(#glowA)"/>
<rect width="1600" height="900" fill="url(#glowB)"/>
<rect width="1600" height="900" fill="url(#grid)" opacity=".40"/>
<g filter="url(#shadow)">
<rect x="70" y="70" width="1460" height="760" rx="28" fill="rgba(255,255,255,.05)" stroke="rgba(255,255,255,.12)"/>
<rect x="96" y="96" width="1408" height="58" rx="18" fill="rgba(255,255,255,.06)" stroke="rgba(255,255,255,.10)"/>
<rect x="96" y="172" width="240" height="630" rx="22" fill="rgba(255,255,255,.04)" stroke="rgba(255,255,255,.10)"/>
<rect x="120" y="200" width="192" height="16" rx="8" fill="rgba(255,255,255,.13)" opacity="0.35"/>
<rect x="120" y="264" width="192" height="16" rx="8" fill="rgba(255,255,255,.13)" opacity="0.7"/>
<rect x="120" y="328" width="192" height="16" rx="8" fill="rgba(255,255,255,.13)" opacity="0.35"/>
<rect x="120" y="392" width="192" height="16" rx="8" fill="rgba(255,255,255,.13)" opacity="0.35"/>
<rect x="120" y="456" width="192" height="16" rx="8" fill="rgba(255,255,255,.13)" opacity="0.35"/>
<rect x="120" y="520" width="192" height="16" rx="8" fill="rgba(255,255,255,.13)" opacity="0.35"/>
<rect x="120" y="584" width="192" height="16" rx="8" fill="rgba(255,255,255,.13)" opacity="0.35"/>
<rect x="120" y="648" width="192" height="16" rx="8" fill="rgba(255,255,255,.13)" opacity="0.35"/>
<rect x="360" y="172" width="720" height="630" rx="24" fill="rgba(255,255,255,.045)" stroke="rgba(255,255,255,.12)"/>
<rect x="1100" y="172" width="404" height="310" rx="24" fill="rgba(255,255,255,.045)" stroke="rgba(255,255,255,.12)"/>
<rect x="1100" y="492" width="404" height="310" rx="24" fill="rgba(255,255,255,.045)" stroke="rgba(255,255,255,.12)"/>
<circle cx="720" cy="420" r="150" fill="none" stroke="rgba(255,255,255,.10)" stroke-width="34"/>
<path d="M 720 270 A 150 150 0 1 1 612 556" fill="none" stroke="#6ee7ff" stroke-width="34" stroke-linecap="round" opacity=".90"/>
<path d="M 612 556 A 150 150 0 0 1 720 270" fill="none" stroke="#f5c66a" stroke-width="34" stroke-linecap="round" opacity=".75"/>
<rect x="430" y="610" width="26" height="26" rx="6" fill="#6ee7ff" opacity="0.08"/>
<rect x="462" y="610" width="26" height="26" rx="6" fill="rgba(255,255,255,.25)" opacity="0.15"/>
<rect x="494" y="610" width="26" height="26" rx="6" fill="rgba(255,255,255,.25)" opacity="0.22"/>
<rect x="526" y="610" width="26" height="26" rx="6" fill="#6ee7ff" opacity="0.29"/>
<rect x="558" y="610" width="26" height="26" rx="6" fill="rgba(255,255,255,.25)" opacity="0.08"/>
<rect x="590" y="610" width="26" height="26" rx="6" fill="rgba(255,255,255,.25)" opacity="0.15"/>
<rect x="622" y="610" width="26" height="26" rx="6" fill="#6ee7ff" opacity="0.22"/>
<rect x="654" y="610" width="26" height="26" rx="6" fill="rgba(255,255,255,.25)" opacity="0.29"/>
<rect x="686" y="610" width="26" height="26" rx="6" fill="rgba(255,255,255,.25)" opacity="0.08"/>
<rect x="718" y="610" width="26" height="26" rx="6" fill="#6ee7ff" opacity="0.15"/>
<rect x="750" y="610" width="26" height="26" rx="6" fill="rgba(255,255,255,.25)" opacity="0.22"/>
<rect x="782" y="610" width="26" height="26" rx="6" fill="rgba(255,255,255,.25)" opacity="0.29"/>
<rect x="430" y="642" width="26" height="26" rx="6" fill="rgba(255,255,255,.25)" opacity="0.15"/>
<rect x="462" y="642" width="26" height="26" rx="6" fill="rgba(255,255,255,.25)" opacity="0.22"/>
<rect x="494" y="642" width="26" height="26" rx="6" fill="#6ee7ff" opacity="0.29"/>
<rect x="526" y="642" width="26" height="26" rx="6" fill="rgba(255,255,255,.25)" opacity="0.08"/>
<rect x="558" y="642" width="26" height="26" rx="6" fill="rgba(255,255,255,.25)" opacity="0.15"/>
<rect x="590" y="642" width="26" height="26" rx="6" fill="#6ee7ff" opacity="0.22"/>
<rect x="622" y="642" width="26" height="26" rx="6" fill="rgba(255,255,255,.25)" opacity="0.29"/>
<rect x="654" y="642" width="26" height="26" rx="6" fill="rgba(255,255,255,.25)" opacity="0.08"/>
<rect x="686" y="642" width="26" height="26" rx="6" fill="#6ee7ff" opacity="0.15"/>
<rect x="718" y="642" width="26" height="26" rx="6" fill="rgba(255,255,255,.25)" opacity="0.22"/>
<rect x="750" y="642" width="26" height="26" rx="6" fill="rgba(255,255,255,.25)" opacity="0.29"/>
<rect x="782" y="642" width="26" height="26" rx="6" fill="#6ee7ff" opacity="0.08"/>
<rect x="430" y="674" width="26" height="26" rx="6" fill="rgba(255,255,255,.25)" opacity="0.22"/>
<rect x="462" y="674" width="26" height="26" rx="6" fill="#6ee7ff" opacity="0.29"/>
<rect x="494" y="674" width="26" height="26" rx="6" fill="rgba(255,255,255,.25)" opacity="0.08"/>
<rect x="526" y="674" width="26" height="26" rx="6" fill="rgba(255,255,255,.25)" opacity="0.15"/>
<rect x="558" y="674" width="26" height="26" rx="6" fill="#6ee7ff" opacity="0.22"/>
<rect x="590" y="674" width="26" height="26" rx="6" fill="rgba(255,255,255,.25)" opacity="0.29"/>
<rect x="622" y="674" width="26" height="26" rx="6" fill="rgba(255,255,255,.25)" opacity="0.08"/>
<rect x="654" y="674" width="26" height="26" rx="6" fill="#6ee7ff" opacity="0.15"/>
<rect x="686" y="674" width="26" height="26" rx="6" fill="rgba(255,255,255,.25)" opacity="0.22"/>
<rect x="718" y="674" width="26" height="26" rx="6" fill="rgba(255,255,255,.25)" opacity="0.29"/>
<rect x="750" y="674" width="26" height="26" rx="6" fill="#6ee7ff" opacity="0.08"/>
<rect x="782" y="674" width="26" height="26" rx="6" fill="rgba(255,255,255,.25)" opacity="0.15"/>
<rect x="430" y="706" width="26" height="26" rx="6" fill="#6ee7ff" opacity="0.29"/>
<rect x="462" y="706" width="26" height="26" rx="6" fill="rgba(255,255,255,.25)" opacity="0.08"/>
<rect x="494" y="706" width="26" height="26" rx="6" fill="rgba(255,255,255,.25)" opacity="0.15"/>
<rect x="526" y="706" width="26" height="26" rx="6" fill="#6ee7ff" opacity="0.22"/>
<rect x="558" y="706" width="26" height="26" rx="6" fill="rgba(255,255,255,.25)" opacity="0.29"/>
<rect x="590" y="706" width="26" height="26" rx="6" fill="rgba(255,255,255,.25)" opacity="0.08"/>
<rect x="622" y="706" width="26" height="26" rx="6" fill="#6ee7ff" opacity="0.15"/>
<rect x="654" y="706" width="26" height="26" rx="6" fill="rgba(255,255,255,.25)" opacity="0.22"/>
<rect x="686" y="706" width="26" height="26" rx="6" fill="rgba(255,255,255,.25)" opacity="0.29"/>
<rect x="718" y="706" width="26" height="26" rx="6" fill="#6ee7ff" opacity="0.08"/>
<rect x="750" y="706" width="26" height="26" rx="6" fill="rgba(255,255,255,.25)" opacity="0.15"/>
<rect x="782" y="706" width="26" height="26" rx="6" fill="rgba(255,255,255,.25)" opacity="0.22"/>
<rect x="430" y="738" width="26" height="26" rx="6" fill="rgba(255,255,255,.25)" opacity="0.08"/>
<rect x="462" y="738" width="26" height="26" rx="6" fill="rgba(255,255,255,.25)" opacity="0.15"/>
<rect x="494" y="738" width="26" height="26" rx="6" fill="#6ee7ff" opacity="0.22"/>
<rect x="526" y="738" width="26" height="26" rx="6" fill="rgba(255,255,255,.25)" opacity="0.29"/>
<rect x="558" y="738" width="26" height="26" rx="6" fill="rgba(255,255,255,.25)" opacity="0.08"/>
<rect x="590" y="738" width="26" height="26" rx="6" fill="#6ee7ff" opacity="0.15"/>
<rect x="622" y="738" width="26" height="26" rx="6" fill="rgba(255,255,255,.25)" opacity="0.22"/>
<rect x="654" y="738" width="26" height="26" rx="6" fill="rgba(255,255,255,.25)" opacity="0.29"/>
<rect x="686" y="738" width="26" height="26" rx="6" fill="#6ee7ff" opacity="0.08"/>
<rect x="718" y="738" width="26" height="26" rx="6" fill="rgba(255,255,255,.25)" opacity="0.15"/>
<rect x="750" y="738" width="26" height="26" rx="6" fill="rgba(255,255,255,.25)" opacity="0.22"/>
<rect x="782" y="738" width="26" height="26" rx="6" fill="#6ee7ff" opacity="0.29"/>
<rect x="430" y="770" width="26" height="26" rx="6" fill="rgba(255,255,255,.25)" opacity="0.15"/>
<rect x="462" y="770" width="26" height="26" rx="6" fill="#6ee7ff" opacity="0.22"/>
<rect x="494" y="770" width="26" height="26" rx="6" fill="rgba(255,255,255,.25)" opacity="0.29"/>
<rect x="526" y="770" width="26" height="26" rx="6" fill="rgba(255,255,255,.25)" opacity="0.08"/>
<rect x="558" y="770" width="26" height="26" rx="6" fill="#6ee7ff" opacity="0.15"/>
<rect x="590" y="770" width="26" height="26" rx="6" fill="rgba(255,255,255,.25)" opacity="0.22"/>
<rect x="622" y="770" width="26" height="26" rx="6" fill="rgba(255,255,255,.25)" opacity="0.29"/>
<rect x="654" y="770" width="26" height="26" rx="6" fill="#6ee7ff" opacity="0.08"/>
<rect x="686" y="770" width="26" height="26" rx="6" fill="rgba(255,255,255,.25)" opacity="0.15"/>
<rect x="718" y="770" width="26" height="26" rx="6" fill="rgba(255,255,255,.25)" opacity="0.22"/>
<rect x="750" y="770" width="26" height="26" rx="6" fill="#6ee7ff" opacity="0.29"/>
<rect x="782" y="770" width="26" height="26" rx="6" fill="rgba(255,255,255,.25)" opacity="0.08"/>
<rect x="430" y="802" width="26" height="26" rx="6" fill="#6ee7ff" opacity="0.22"/>
<rect x="462" y="802" width="26" height="26" rx="6" fill="rgba(255,255,255,.25)" opacity="0.29"/>
<rect x="494" y="802" width="26" height="26" rx="6" fill="rgba(255,255,255,.25)" opacity="0.08"/>
<rect x="526" y="802" width="26" height="26" rx="6" fill="#6ee7ff" opacity="0.15"/>
<rect x="558" y="802" width="26" height="26" rx="6" fill="rgba(255,255,255,.25)" opacity="0.22"/>
<rect x="590" y="802" width="26" height="26" rx="6" fill="rgba(255,255,255,.25)" opacity="0.29"/>
<rect x="622" y="802" width="26" height="26" rx="6" fill="#6ee7ff" opacity="0.08"/>
<rect x="654" y="802" width="26" height="26" rx="6" fill="rgba(255,255,255,.25)" opacity="0.15"/>
<rect x="686" y="802" width="26" height="26" rx="6" fill="rgba(255,255,255,.25)" opacity="0.22"/>
<rect x="718" y="802" width="26" height="26" rx="6" fill="#6ee7ff" opacity="0.29"/>
<rect x="750" y="802" width="26" height="26" rx="6" fill="rgba(255,255,255,.25)" opacity="0.08"/>
<rect x="782" y="802" width="26" height="26" rx="6" fill="rgba(255,255,255,.25)" opacity="0.15"/>
<rect x="430" y="834" width="26" height="26" rx="6" fill="rgba(255,255,255,.25)" opacity="0.29"/>
<rect x="462" y="834" width="26" height="26" rx="6" fill="rgba(255,255,255,.25)" opacity="0.08"/>
<rect x="494" y="834" width="26" height="26" rx="6" fill="#6ee7ff" opacity="0.15"/>
<rect x="526" y="834" width="26" height="26" rx="6" fill="rgba(255,255,255,.25)" opacity="0.22"/>
<rect x="558" y="834" width="26" height="26" rx="6" fill="rgba(255,255,255,.25)" opacity="0.29"/>
<rect x="590" y="834" width="26" height="26" rx="6" fill="#6ee7ff" opacity="0.08"/>
<rect x="622" y="834" width="26" height="26" rx="6" fill="rgba(255,255,255,.25)" opacity="0.15"/>
<rect x="654" y="834" width="26" height="26" rx="6" fill="rgba(255,255,255,.25)" opacity="0.22"/>
<rect x="686" y="834" width="26" height="26" rx="6" fill="#6ee7ff" opacity="0.29"/>
<rect x="718" y="834" width="26" height="26" rx="6" fill="rgba(255,255,255,.25)" opacity="0.08"/>
<rect x="750" y="834" width="26" height="26" rx="6" fill="rgba(255,255,255,.25)" opacity="0.15"/>
<rect x="782" y="834" width="26" height="26" rx="6" fill="#6ee7ff" opacity="0.22"/>
<rect x="430" y="866" width="26" height="26" rx="6" fill="rgba(255,255,255,.25)" opacity="0.08"/>
<rect x="462" y="866" width="26" height="26" rx="6" fill="#6ee7ff" opacity="0.15"/>
<rect x="494" y="866" width="26" height="26" rx="6" fill="rgba(255,255,255,.25)" opacity="0.22"/>
<rect x="526" y="866" width="26" height="26" rx="6" fill="rgba(255,255,255,.25)" opacity="0.29"/>
<rect x="558" y="866" width="26" height="26" rx="6" fill="#6ee7ff" opacity="0.08"/>
<rect x="590" y="866" width="26" height="26" rx="6" fill="rgba(255,255,255,.25)" opacity="0.15"/>
<rect x="622" y="866" width="26" height="26" rx="6" fill="rgba(255,255,255,.25)" opacity="0.22"/>
<rect x="654" y="866" width="26" height="26" rx="6" fill="#6ee7ff" opacity="0.29"/>
<rect x="686" y="866" width="26" height="26" rx="6" fill="rgba(255,255,255,.25)" opacity="0.08"/>
<rect x="718" y="866" width="26" height="26" rx="6" fill="rgba(255,255,255,.25)" opacity="0.15"/>
<rect x="750" y="866" width="26" height="26" rx="6" fill="#6ee7ff" opacity="0.22"/>
<rect x="782" y="866" width="26" height="26" rx="6" fill="rgba(255,255,255,.25)" opacity="0.29"/>
<rect x="1128.0" y="377.5" width="39.4" height="52.5" rx="6" fill="#6ee7ff" opacity="0.55"/>
<rect x="1179.4" y="354.8" width="39.4" height="75.2" rx="6" fill="#6ee7ff" opacity="0.55"/>
<rect x="1230.9" y="332.0" width="39.4" height="98.0" rx="6" fill="#6ee7ff" opacity="0.55"/>
<rect x="1282.3" y="309.2" width="39.4" height="120.7" rx="6" fill="#6ee7ff" opacity="0.55"/>
<rect x="1333.7" y="286.5" width="39.4" height="143.5" rx="6" fill="#6ee7ff" opacity="0.55"/>
<rect x="1385.1" y="263.8" width="39.4" height="166.3" rx="6" fill="#6ee7ff" opacity="0.55"/>
<rect x="1436.6" y="241.0" width="39.4" height="189.0" rx="6" fill="#6ee7ff" opacity="0.55"/>
<rect x="1128.0" y="697.5" width="39.4" height="52.5" rx="6" fill="#f5c66a" opacity="0.4"/>
<rect x="1179.4" y="674.8" width="39.4" height="75.2" rx="6" fill="#f5c66a" opacity="0.4"/>
<rect x="1230.9" y="652.0" width="39.4" height="98.0" rx="6" fill="#f5c66a" opacity="0.4"/>
<rect x="1282.3" y="629.2" width="39.4" height="120.7" rx="6" fill="#f5c66a" opacity="0.4"/>
<rect x="1333.7" y="606.5" width="39.4" height="143.5" rx="6" fill="#f5c66a" opacity="0.4"/>
<rect x="1385.1" y="583.8" width="39.4" height="166.3" rx="6" fill="#f5c66a" opacity="0.4"/>
<rect x="1436.6" y="561.0" width="39.4" height="189.0" rx="6" fill="#f5c66a" opacity="0.4"/>
</g>
</svg>