<svg xmlns="http://www.w3.org/2000/svg" width="1600" height="900" viewBox="0 0 1600 900">

  <defs>
    <linearGradient id="bg" x1="0" y1="0" x2="1" y2="1">
      <stop offset="0" stop-color="#060812"/>
      <stop offset="0.55" stop-color="#0b0d18"/>
      <stop offset="1" stop-color="#070910"/>
    </linearGradient>
    <radialGradient id="glowA" cx="20%" cy="18%" r="65%">
      <stop offset="0" stop-color="#6ee7ff" stop-opacity=".22"/>
      <stop offset="1" stop-color="#6ee7ff" stop-opacity="0"/>
    </radialGradient>
    <radialGradient id="glowB" cx="88%" cy="20%" r="70%">
      <stop offset="0" stop-color="#f5c66a" stop-opacity=".18"/>
      <stop offset="1" stop-color="#f5c66a" stop-opacity="0"/>
    </radialGradient>
    <pattern id="grid" width="40" height="40" patternUnits="userSpaceOnUse">
      <path d="M 40 0 L 0 0 0 40" fill="none" stroke="rgba(255,255,255,.07)" stroke-width="1"/>
    </pattern>
    <filter id="shadow" x="-30%" y="-30%" width="160%" height="160%">
      <feDropShadow dx="0" dy="18" stdDeviation="18" flood-color="#000" flood-opacity=".55"/>
    </filter>
  </defs>

<rect width="1600" height="900" fill="url(#bg)"/>
<rect width="1600" height="900" fill="url(#glowA)"/>
<rect width="1600" height="900" fill="url(#glowB)"/>
<rect width="1600" height="900" fill="url(#grid)" opacity=".40"/>
<g filter="url(#shadow)">
<rect x="70" y="70" width="1460" height="760" rx="28" fill="rgba(255,255,255,.05)" stroke="rgba(255,255,255,.12)"/>
<rect x="96" y="96" width="1408" height="58" rx="18" fill="rgba(255,255,255,.06)" stroke="rgba(255,255,255,.10)"/>
<rect x="96" y="172" width="240" height="630" rx="22" fill="rgba(255,255,255,.04)" stroke="rgba(255,255,255,.10)"/>
<rect x="120" y="200" width="192" height="16" rx="8" fill="rgba(255,255,255,.13)" opacity="0.35"/>
<rect x="120" y="264" width="192" height="16" rx="8" fill="rgba(255,255,255,.13)" opacity="0.7"/>
<rect x="120" y="328" width="192" height="16" rx="8" fill="rgba(255,255,255,.13)" opacity="0.35"/>
<rect x="120" y="392" width="192" height="16" rx="8" fill="rgba(255,255,255,.13)" opacity="0.35"/>
<rect x="120" y="456" width="192" height="16" rx="8" fill="rgba(255,255,255,.13)" opacity="0.35"/>
<rect x="120" y="520" width="192" height="16" rx="8" fill="rgba(255,255,255,.13)" opacity="0.35"/>
<rect x="120" y="584" width="192" height="16" rx="8" fill="rgba(255,255,255,.13)" opacity="0.35"/>
<rect x="120" y="648" width="192" height="16" rx="8" fill="rgba(255,255,255,.13)" opacity="0.35"/>
<rect x="360" y="172" width="1144" height="630" rx="24" fill="rgba(255,255,255,.045)" stroke="rgba(255,255,255,.12)"/>
<rect x="310" y="204" width="240" height="112" rx="24" fill="rgba(255,255,255,.05)" stroke="rgba(255,255,255,.12)"/>
<circle cx="352" cy="260" r="14" fill="#6ee7ff" opacity=".85"/>
<rect x="382" y="250" width="120" height="20" rx="10" fill="rgba(255,255,255,.14)" opacity=".55"/>
<rect x="382" y="280" width="160" height="12" rx="6" fill="rgba(255,255,255,.10)" opacity=".40"/>
<rect x="310" y="364" width="240" height="112" rx="24" fill="rgba(255,255,255,.05)" stroke="rgba(255,255,255,.12)"/>
<circle cx="352" cy="420" r="14" fill="rgba(255,255,255,.35)" opacity=".85"/>
<rect x="382" y="410" width="120" height="20" rx="10" fill="rgba(255,255,255,.14)" opacity=".55"/>
<rect x="382" y="440" width="160" height="12" rx="6" fill="rgba(255,255,255,.10)" opacity=".40"/>
<rect x="310" y="524" width="240" height="112" rx="24" fill="rgba(255,255,255,.05)" stroke="rgba(255,255,255,.12)"/>
<circle cx="352" cy="580" r="14" fill="#f5c66a" opacity=".85"/>
<rect x="382" y="570" width="120" height="20" rx="10" fill="rgba(255,255,255,.14)" opacity=".55"/>
<rect x="382" y="600" width="160" height="12" rx="6" fill="rgba(255,255,255,.10)" opacity=".40"/>
<rect x="640" y="364" width="240" height="112" rx="24" fill="rgba(255,255,255,.05)" stroke="rgba(255,255,255,.12)"/>
<circle cx="682" cy="420" r="14" fill="rgba(255,255,255,.40)" opacity=".85"/>
<rect x="712" y="410" width="120" height="20" rx="10" fill="rgba(255,255,255,.14)" opacity=".55"/>
<rect x="712" y="440" width="160" height="12" rx="6" fill="rgba(255,255,255,.10)" opacity=".40"/>
<rect x="950" y="364" width="240" height="112" rx="24" fill="rgba(255,255,255,.05)" stroke="rgba(255,255,255,.12)"/>
<circle cx="992" cy="420" r="14" fill="#6ee7ff" opacity=".85"/>
<rect x="1022" y="410" width="120" height="20" rx="10" fill="rgba(255,255,255,.14)" opacity=".55"/>
<rect x="1022" y="440" width="160" height="12" rx="6" fill="rgba(255,255,255,.10)" opacity=".40"/>
<rect x="1250" y="364" width="240" height="112" rx="24" fill="rgba(255,255,255,.05)" stroke="rgba(255,255,255,.12)"/>
<circle cx="1292" cy="420" r="14" fill="#f5c66a" opacity=".85"/>
<rect x="1322" y="410" width="120" height="20" rx="10" fill="rgba(255,255,255,.14)" opacity=".55"/>
<rect x="1322" y="440" width="160" height="12" rx="6" fill="rgba(255,255,255,.10)" opacity=".40"/>
<path d="M 550 260 C 630 260, 560 420, 640 420" fill="none" stroke="#6ee7ff" stroke-width="6" stroke-linecap="round" opacity=".65"/>
<path d="M 550 420 C 630 420, 560 420, 640 420" fill="none" stroke="rgba(255,255,255,.35)" stroke-width="6" stroke-linecap="round" opacity=".65"/>
<path d="M 550 580 C 630 580, 560 420, 640 420" fill="none" stroke="#f5c66a" stroke-width="6" stroke-linecap="round" opacity=".65"/>
<path d="M 880 420 C 960 420, 870 420, 950 420" fill="none" stroke="#6ee7ff" stroke-width="6" stroke-linecap="round" opacity=".65"/>
<path d="M 1190 420 C 1270 420, 1170 420, 1250 420" fill="none" stroke="#f5c66a" stroke-width="6" stroke-linecap="round" opacity=".65"/>
<rect x="390" y="690" width="1090" height="112" rx="22" fill="rgba(0,0,0,.20)" stroke="rgba(255,255,255,.10)"/>
<rect x="420" y="714" width="220" height="8" rx="4" fill="#6ee7ff" opacity=".35"/>
<rect x="420" y="728" width="340" height="8" rx="4" fill="rgba(255,255,255,.25)" opacity=".35"/>
<rect x="420" y="742" width="460" height="8" rx="4" fill="#6ee7ff" opacity=".35"/>
<rect x="420" y="756" width="580" height="8" rx="4" fill="rgba(255,255,255,.25)" opacity=".35"/>
<rect x="420" y="770" width="700" height="8" rx="4" fill="#6ee7ff" opacity=".35"/>
<rect x="420" y="784" width="820" height="8" rx="4" fill="rgba(255,255,255,.25)" opacity=".35"/>
</g>
</svg>