<svg xmlns="http://www.w3.org/2000/svg" width="1400" height="900" viewBox="0 0 1400 900">

  <defs>
    <linearGradient id="bg" x1="0" y1="0" x2="1" y2="1">
      <stop offset="0" stop-color="#060812"/>
      <stop offset="0.55" stop-color="#0b0d18"/>
      <stop offset="1" stop-color="#070910"/>
    </linearGradient>
    <radialGradient id="glowA" cx="20%" cy="18%" r="65%">
      <stop offset="0" stop-color="#6ee7ff" stop-opacity=".22"/>
      <stop offset="1" stop-color="#6ee7ff" stop-opacity="0"/>
    </radialGradient>
    <radialGradient id="glowB" cx="88%" cy="20%" r="70%">
      <stop offset="0" stop-color="#f5c66a" stop-opacity=".18"/>
      <stop offset="1" stop-color="#f5c66a" stop-opacity="0"/>
    </radialGradient>
    <pattern id="grid" width="40" height="40" patternUnits="userSpaceOnUse">
      <path d="M 40 0 L 0 0 0 40" fill="none" stroke="rgba(255,255,255,.07)" stroke-width="1"/>
    </pattern>
    <filter id="shadow" x="-30%" y="-30%" width="160%" height="160%">
      <feDropShadow dx="0" dy="18" stdDeviation="18" flood-color="#000" flood-opacity=".55"/>
    </filter>
  </defs>

<rect width="1400" height="900" fill="url(#bg)"/>
<rect width="1400" height="900" fill="url(#glowA)"/>
<rect width="1400" height="900" fill="url(#glowB)"/>
<rect width="1400" height="900" fill="url(#grid)" opacity=".45"/>
<g filter="url(#shadow)">
<rect x="160" y="190" width="980" height="560" rx="26" fill="rgba(255,255,255,.05)" stroke="rgba(255,255,255,.12)"/>
<rect x="178" y="208" width="944" height="56" rx="18" fill="rgba(255,255,255,.06)" stroke="rgba(255,255,255,.10)"/>
<rect x="178" y="286" width="300" height="110" rx="20" fill="rgba(255,255,255,.05)" stroke="rgba(255,255,255,.12)"/>
<rect x="196" y="306" width="165.0" height="10" rx="5" fill="rgba(255,255,255,.14)"/>
<rect x="196" y="330" width="96.0" height="10" rx="5" fill="rgba(255,255,255,.10)"/>
<rect x="196" y="358" width="126.0" height="10" rx="5" fill="rgba(255,255,255,.10)"/>
<rect x="178" y="410" width="300" height="110" rx="20" fill="rgba(255,255,255,.05)" stroke="rgba(255,255,255,.12)"/>
<rect x="196" y="430" width="165.0" height="10" rx="5" fill="rgba(255,255,255,.14)"/>
<rect x="196" y="454" width="96.0" height="10" rx="5" fill="rgba(255,255,255,.10)"/>
<rect x="196" y="482" width="126.0" height="10" rx="5" fill="rgba(255,255,255,.10)"/>
<rect x="178" y="534" width="300" height="110" rx="20" fill="rgba(255,255,255,.05)" stroke="rgba(255,255,255,.12)"/>
<rect x="196" y="554" width="165.0" height="10" rx="5" fill="rgba(255,255,255,.14)"/>
<rect x="196" y="578" width="96.0" height="10" rx="5" fill="rgba(255,255,255,.10)"/>
<rect x="196" y="606" width="126.0" height="10" rx="5" fill="rgba(255,255,255,.10)"/>
<rect x="178" y="658" width="300" height="110" rx="20" fill="rgba(255,255,255,.05)" stroke="rgba(255,255,255,.12)"/>
<rect x="196" y="678" width="165.0" height="10" rx="5" fill="rgba(255,255,255,.14)"/>
<rect x="196" y="702" width="96.0" height="10" rx="5" fill="rgba(255,255,255,.10)"/>
<rect x="196" y="730" width="126.0" height="10" rx="5" fill="rgba(255,255,255,.10)"/>
<rect x="504" y="286" width="610" height="290" rx="22" fill="rgba(255,255,255,.045)" stroke="rgba(255,255,255,.12)"/>
<path d="M 528 326.0 H 1090" stroke="rgba(255,255,255,.07)" stroke-width="2"/>
<path d="M 528 378.5 H 1090" stroke="rgba(255,255,255,.07)" stroke-width="2"/>
<path d="M 528 431.0 H 1090" stroke="rgba(255,255,255,.07)" stroke-width="2"/>
<path d="M 528 483.5 H 1090" stroke="rgba(255,255,255,.07)" stroke-width="2"/>
<path d="M 528 536.0 H 1090" stroke="rgba(255,255,255,.07)" stroke-width="2"/>
<path d="M 534.0 482.0 L 600.0 470.0 L 655.0 478.0 L 726.5 446.0 L 798.0 454.0 L 875.0 418.0 L 946.5 430.0 L 1018.0 392.0 L 1084.0 382.0" fill="none" stroke="#f5c66a" stroke-opacity="0.9" stroke-width="6" stroke-linecap="round" stroke-linejoin="round"/>
<circle cx="1064" cy="356" r="8" fill="#f5c66a" opacity=".9"/>
<rect x="504" y="594" width="297.0" height="138" rx="22" fill="rgba(255,255,255,.045)" stroke="rgba(255,255,255,.12)"/>
<rect x="817.0" y="594" width="297.0" height="138" rx="22" fill="rgba(255,255,255,.045)" stroke="rgba(255,255,255,.12)"/>
<rect x="538.0" y="678.5" width="16.6" height="15.5" rx="6" fill="#6ee7ff" opacity="0.78"/>
<rect x="564.6" y="673.5" width="16.6" height="20.5" rx="6" fill="#6ee7ff" opacity="0.78"/>
<rect x="591.1" y="668.4" width="16.6" height="25.6" rx="6" fill="#6ee7ff" opacity="0.78"/>
<rect x="617.7" y="663.4" width="16.6" height="30.6" rx="6" fill="#6ee7ff" opacity="0.78"/>
<rect x="644.2" y="658.4" width="16.6" height="35.6" rx="6" fill="#6ee7ff" opacity="0.78"/>
<rect x="670.8" y="653.3" width="16.6" height="40.7" rx="6" fill="#6ee7ff" opacity="0.78"/>
<rect x="697.3" y="648.3" width="16.6" height="45.7" rx="6" fill="#6ee7ff" opacity="0.78"/>
<rect x="723.9" y="643.2" width="16.6" height="50.8" rx="6" fill="#6ee7ff" opacity="0.78"/>
<rect x="750.4" y="638.2" width="16.6" height="55.8" rx="6" fill="#6ee7ff" opacity="0.78"/>
<path d="M 847.0 677.0 L 875.4 674.0 L 899.1 676.0 L 930.0 668.0 L 960.8 670.0 L 993.9 661.0 L 1024.8 664.0 L 1055.6 654.5 L 1084.0 652.0" fill="none" stroke="#6ee7ff" stroke-opacity="0.72" stroke-width="6" stroke-linecap="round" stroke-linejoin="round"/>
<circle cx="260" cy="210" r="10" fill="#6ee7ff" opacity=".85"/>

    <g opacity=".85" fill="none" stroke="rgba(255,255,255,.70)" stroke-width="3" stroke-linecap="round" stroke-linejoin="round">
      <path d="M 1096.9 235.5 L 1120.0 221.1 L 1143.1 235.5 Z"/>
      <rect x="1103.2" y="235.5" width="33.6" height="21.2" rx="6.3"/>
      <path d="M 1113.1 256.6 v -11.3 h 13.9 v 11.3"/>
    </g>
    

    <g opacity=".85" fill="none" stroke="rgba(255,255,255,.70)" stroke-width="3" stroke-linecap="round" stroke-linejoin="round">
      <rect x="1101.1" y="306.9" width="37.8" height="46.2" rx="10.5"/>
      <rect x="1107.4" y="314.2" width="25.2" height="10.2" rx="6.3"/>
      <g opacity=".85">
        <circle cx="1112.4" cy="329.1" r="2.7"/>
        <circle cx="1120.8" cy="329.1" r="2.7"/>
        <circle cx="1129.1" cy="329.1" r="2.7"/>
        <circle cx="1112.4" cy="337.4" r="2.7"/>
        <circle cx="1120.8" cy="337.4" r="2.7"/>
        <circle cx="1129.1" cy="337.4" r="2.7"/>
        <circle cx="1112.4" cy="345.7" r="2.7"/>
        <circle cx="1120.8" cy="345.7" r="2.7"/>
        <circle cx="1129.1" cy="345.7" r="2.7"/>
      </g>
    </g>
    
<rect x="880" y="218" width="64" height="32" rx="16" fill="rgba(255,255,255,.06)" stroke="rgba(255,255,255,.10)"/>
<circle cx="900" cy="234" r="6" fill="#6ee7ff" opacity=".9"/>
<rect x="912" y="230" width="22" height="8" rx="4" fill="rgba(255,255,255,.16)"/>
<rect x="958" y="218" width="64" height="32" rx="16" fill="rgba(255,255,255,.06)" stroke="rgba(255,255,255,.10)"/>
<circle cx="978" cy="234" r="6" fill="#f5c66a" opacity=".9"/>
<rect x="990" y="230" width="22" height="8" rx="4" fill="rgba(255,255,255,.16)"/>
<rect x="1036" y="218" width="64" height="32" rx="16" fill="rgba(255,255,255,.06)" stroke="rgba(255,255,255,.10)"/>
<circle cx="1056" cy="234" r="6" fill="rgba(255,255,255,.35)" opacity=".9"/>
<rect x="1068" y="230" width="22" height="8" rx="4" fill="rgba(255,255,255,.16)"/>
</g>
</svg>